<?xml version="1.0" encoding="utf-8"?>
<!-- Generator: Adobe Illustrator 26.0.1, SVG Export Plug-In . SVG Version: 6.00 Build 0)  -->
<svg version="1.1" id="レイヤー_1" xmlns="http://www.w3.org/2000/svg" xmlns:xlink="http://www.w3.org/1999/xlink" x="0px"
	 y="0px" viewBox="0 0 1196.4 182.4" style="enable-background:new 0 0 1196.4 182.4;" xml:space="preserve">
<g id="Layer_2">
	<g id="Layer_1-2">
		<path d="M184.4,56.3l-20.2-11.6c-10-5.8-25.1-5.8-35,0l-20,11.5c-2.6,1.3-5.4,1.9-8.3,1.7c-2.6,0-5.1-0.5-7.5-1.7l-20-11.5
			c-10-5.8-25-5.8-35,0l-4.7,2.7v22.3l14.3-8.3c4-2.3,11.8-2.3,15.7,0l20,11.5c5.2,2.9,11.1,4.3,17.1,4.3c6.3,0.2,12.4-1.3,17.9-4.3
			l20-11.5c4-2.3,11.8-2.3,15.7,0L174.8,73c4,2.3,7.9,9,7.9,13.6v23.3c0,4.6-3.9,11.3-7.9,13.6l-65.5,37.8c-2.6,1.3-5.4,1.9-8.3,1.7
			c-2.6,0-5.1-0.6-7.5-1.7L0,107.4v10c0,7.6,4.1,14.7,10.7,18.5l73.2,42.3c5.3,2.9,11.2,4.3,17.1,4.3h0.4c6.1,0.1,12.1-1.4,17.5-4.3
			l65.5-37.8c10-5.8,17.5-18.8,17.5-30.3V86.6C202,75.5,194.1,61.8,184.4,56.3z"/>
		<path d="M27.2,32.7L47.3,21c4-2.3,11.8-2.3,15.7,0l20,11.5c5.5,3,11.7,4.5,17.9,4.3c6,0,11.9-1.5,17.1-4.3l20-11.5
			c4-2.3,11.8-2.3,15.7,0L202,48.8v-7.4c0-9.2-5-17.8-13-22.4L163.5,4.3c-10-5.8-25.1-5.8-35,0l-20,11.5c-2.3,1.2-4.9,1.7-7.5,1.7
			c-2.9,0.1-5.7-0.4-8.3-1.7l-20-11.5c-10-5.8-25-5.8-35,0L17.5,16C7.9,21.5,0,35.2,0,46.3v23.3c0,11.5,7.5,24.6,17.5,30.4
			l65.5,37.8c5.4,2.9,11.4,4.4,17.5,4.3h0.4c6,0,11.9-1.5,17.1-4.3l50.1-28.9V86.5l-59.8,34.5c-2.3,1.2-4.9,1.7-7.5,1.7
			c-2.9,0.1-5.7-0.4-8.3-1.7L27.2,83.2c-4-2.3-7.9-9-7.9-13.6V46.3C19.3,41.7,23.2,35,27.2,32.7z"/>
		<path d="M1101.2,114.8c0-30,17.2-54.7,50.2-54.7c34,0,45,23.7,45,49.1c0,3.3-0.2,6.6-0.6,9.9h-65.1c0.4,17.5,6.9,28.7,27.4,28.7
			c10.8,0.1,21.4-2.1,31.2-6.5v22c-10.7,4-22,6.1-33.4,6C1117.3,169.3,1101.2,146.9,1101.2,114.8z M1168.2,102.3v-1.1
			c0-10.1-5.4-20-16.8-20c-11.2,0-18.5,7.5-19.8,21.1L1168.2,102.3z"/>
		<path d="M1032.4,58.9h29.1v11.6c7.1-8.4,16.6-13.3,27.5-13.3c3.1,0,6.1,0.4,9.1,1.3v26c-3.8-0.9-7.7-1.4-11.5-1.3
			c-8.8-0.1-17.4,2.5-24.6,7.5v77.2h-29.5V58.9z"/>
		<path d="M985.5,98.4c0-11.8-5.5-17.6-20.1-17.6c-11,0-21.9,1.4-28.1,3.8V61.9c7.7-2.8,19.6-4.1,33.1-4
			c25.4,0.2,44.4,12.8,44.4,39.3v24.6c0,32.8-11,47.6-46.8,47.6c-23.4,0-41.2-14.3-41.2-33.8c0-27.3,16.2-36.5,49.2-36.5h9.3V98.4z
			 M985.5,129.6v-12.7c-0.9,0-4.2,0-7.1,0c-18.4,0-25,4-25,16.7c0,10.3,9.3,14.8,16.8,14.8C979.2,148.4,985.5,145.3,985.5,129.6z"/>
		<path d="M817.1,102.1c0-38.6,20.7-70.5,64.6-70.5c16.2,0,26.3,3.2,33.2,6v25.7c-6.5-3.9-16.6-6.9-29.9-6.9
			c-23.7,0-36.6,15.7-36.6,45.7c0,27.4,14.2,42.5,37.5,42.5c13.4,0,22.8-3.2,30.6-8v26.3c-8.8,3.9-17.9,6.5-34.2,6.5
			C839.1,169.3,817.1,140.4,817.1,102.1z"/>
		<path d="M742.5,58.9h29.1v11.6c7.1-8.4,16.6-13.3,27.5-13.3c3.1,0,6.1,0.4,9.1,1.3v26c-3.8-0.9-7.7-1.4-11.5-1.3
			c-8.8-0.1-17.4,2.5-24.6,7.5v77.2h-29.5V58.9z"/>
		<path d="M720.5,147.1c-4.2,0-7.1-2-7.1-8.4V58.5h-44.9v20l14.9,2.7v66.5c0,11,6,21.6,23.7,21.6c9,0,16.5-1.4,19.7-3.3v-19.4
			C724.7,146.9,722.6,147.1,720.5,147.1z"/>
		<path d="M697.2,44.2c9.1,0,16.3-7,16.3-15.8s-7.2-15.6-16.3-15.6s-16.5,6.8-16.5,15.6S688,44.2,697.2,44.2z"/>
		<path d="M628.2,98.4c0-11.8-5.6-17.6-20.1-17.6c-11,0-21.9,1.4-28.1,3.8V61.9c7.7-2.8,19.6-4.1,33.2-4
			c25.3,0.2,44.4,12.8,44.4,39.3v24.6c0,32.8-11,47.6-46.7,47.6c-23.4,0-41.2-14.3-41.2-33.8c0-27.3,16.2-36.5,49.2-36.5h9.3
			L628.2,98.4z M628.2,129.6v-12.7c-0.9,0-4.2,0-7.1,0c-18.4,0-25,4-25,16.7c0,10.3,9.3,14.8,16.8,14.8
			C622,148.4,628.2,145.3,628.2,129.6z"/>
		<path d="M468.6,33.4h50.2c28.4,0,45.9,17.9,45.9,44.2c0,25-17.2,43.3-46.7,43.3h-19.8v46.8h-29.5V33.4z M514.1,98.9
			c14.2,0,20.7-8.4,20.7-21.3c0-12.7-6.5-20.9-20.7-20.9h-15.9v42.2H514.1z"/>
		<path d="M355.4,117.7V59.1h29v57.4c0,17.6-0.6,28.6,17.5,28.6s17.4-10.9,17.4-28.6V59.1h29v58.7c0,36.4-13.2,51.9-46.4,51.9
			S355.4,154.2,355.4,117.7z"/>
		<path d="M270.5,33.4h33l49.1,134.2h-32.1l-8.6-26.7h-52.4l-9.1,26.7h-30.4L270.5,33.4z M304.1,117.2l-11.2-34.5
			c-2.6-8-5.2-15.7-6.7-22h-0.4c-1.7,6-4.3,14.2-6.9,22l-11.6,34.5L304.1,117.2z"/>
	</g>
</g>
</svg>
